<mxfile host="app.diagrams.net" modified="2021-03-12T07:43:43.367Z" agent="5.0 (Windows NT 10.0; Win64; x64) AppleWebKit/537.36 (KHTML, like Gecko) Chrome/89.0.4389.72 Safari/537.36 Edg/89.0.774.45" etag="5UXHQJWs6Ix7dah37myF" version="14.4.6" type="github">
  <diagram id="V_59LSjMR8o1_XHd9Hdq" name="Page-1">
    <mxGraphModel dx="2274" dy="1776" grid="1" gridSize="10" guides="1" tooltips="1" connect="1" arrows="1" fold="1" page="1" pageScale="1" pageWidth="850" pageHeight="1100" math="0" shadow="0">
      <root>
        <mxCell id="0" />
        <mxCell id="1" parent="0" />
        <mxCell id="hu1bkPcSUCPwq1X6XEAL-50" style="edgeStyle=orthogonalEdgeStyle;rounded=0;orthogonalLoop=1;jettySize=auto;html=1;entryX=0;entryY=0.5;entryDx=0;entryDy=0;" parent="1" source="hu1bkPcSUCPwq1X6XEAL-3" target="hu1bkPcSUCPwq1X6XEAL-9" edge="1">
          <mxGeometry relative="1" as="geometry" />
        </mxCell>
        <mxCell id="hu1bkPcSUCPwq1X6XEAL-25" value="Trip" style="swimlane;fontStyle=0;childLayout=stackLayout;horizontal=1;startSize=26;fillColor=none;horizontalStack=0;resizeParent=1;resizeParentMax=0;resizeLast=0;collapsible=1;marginBottom=0;" parent="1" vertex="1">
          <mxGeometry x="125" y="-300" width="250" height="208" as="geometry" />
        </mxCell>
        <mxCell id="hu1bkPcSUCPwq1X6XEAL-26" value="_id: UUID" style="text;strokeColor=none;fillColor=none;align=left;verticalAlign=top;spacingLeft=4;spacingRight=4;overflow=hidden;rotatable=0;points=[[0,0.5],[1,0.5]];portConstraint=eastwest;" parent="hu1bkPcSUCPwq1X6XEAL-25" vertex="1">
          <mxGeometry y="26" width="250" height="26" as="geometry" />
        </mxCell>
        <mxCell id="hu1bkPcSUCPwq1X6XEAL-31" value="DateBegin: LocalDate" style="text;strokeColor=none;fillColor=none;align=left;verticalAlign=top;spacingLeft=4;spacingRight=4;overflow=hidden;rotatable=0;points=[[0,0.5],[1,0.5]];portConstraint=eastwest;" parent="hu1bkPcSUCPwq1X6XEAL-25" vertex="1">
          <mxGeometry y="52" width="250" height="26" as="geometry" />
        </mxCell>
        <mxCell id="hu1bkPcSUCPwq1X6XEAL-37" value="Price: FLoat" style="text;strokeColor=none;fillColor=none;align=left;verticalAlign=top;spacingLeft=4;spacingRight=4;overflow=hidden;rotatable=0;points=[[0,0.5],[1,0.5]];portConstraint=eastwest;" parent="hu1bkPcSUCPwq1X6XEAL-25" vertex="1">
          <mxGeometry y="78" width="250" height="26" as="geometry" />
        </mxCell>
        <mxCell id="DdcmMg_G07hXmHs823cP-1" value="Manufacturer: Manufacturer" style="text;strokeColor=none;fillColor=none;align=left;verticalAlign=top;spacingLeft=4;spacingRight=4;overflow=hidden;rotatable=0;points=[[0,0.5],[1,0.5]];portConstraint=eastwest;" parent="hu1bkPcSUCPwq1X6XEAL-25" vertex="1">
          <mxGeometry y="104" width="250" height="26" as="geometry" />
        </mxCell>
        <mxCell id="g0eFvDpEAOizdeeZ9maA-30" value="FromPickUpPoint: List&lt;InforPickUpPoint&gt;" style="text;strokeColor=none;fillColor=none;align=left;verticalAlign=top;spacingLeft=4;spacingRight=4;overflow=hidden;rotatable=0;points=[[0,0.5],[1,0.5]];portConstraint=eastwest;" parent="hu1bkPcSUCPwq1X6XEAL-25" vertex="1">
          <mxGeometry y="130" width="250" height="26" as="geometry" />
        </mxCell>
        <mxCell id="g0eFvDpEAOizdeeZ9maA-39" value="ToPickUpPoint: List&lt;InforPickUpPoint&gt;" style="text;strokeColor=none;fillColor=none;align=left;verticalAlign=top;spacingLeft=4;spacingRight=4;overflow=hidden;rotatable=0;points=[[0,0.5],[1,0.5]];portConstraint=eastwest;" parent="hu1bkPcSUCPwq1X6XEAL-25" vertex="1">
          <mxGeometry y="156" width="250" height="26" as="geometry" />
        </mxCell>
        <mxCell id="g0eFvDpEAOizdeeZ9maA-40" value="CountSeat: Interger" style="text;strokeColor=none;fillColor=none;align=left;verticalAlign=top;spacingLeft=4;spacingRight=4;overflow=hidden;rotatable=0;points=[[0,0.5],[1,0.5]];portConstraint=eastwest;" parent="hu1bkPcSUCPwq1X6XEAL-25" vertex="1">
          <mxGeometry y="182" width="250" height="26" as="geometry" />
        </mxCell>
        <mxCell id="KPz0f72rKH66uZT1xgkU-6" style="edgeStyle=orthogonalEdgeStyle;rounded=0;orthogonalLoop=1;jettySize=auto;html=1;entryX=1.017;entryY=0.146;entryDx=0;entryDy=0;entryPerimeter=0;" edge="1" parent="1" source="hu1bkPcSUCPwq1X6XEAL-65" target="hu1bkPcSUCPwq1X6XEAL-18">
          <mxGeometry relative="1" as="geometry" />
        </mxCell>
        <mxCell id="hu1bkPcSUCPwq1X6XEAL-65" value="Province" style="swimlane;fontStyle=0;childLayout=stackLayout;horizontal=1;startSize=26;fillColor=none;horizontalStack=0;resizeParent=1;resizeParentMax=0;resizeLast=0;collapsible=1;marginBottom=0;" parent="1" vertex="1">
          <mxGeometry x="580" y="-390" width="140" height="78" as="geometry" />
        </mxCell>
        <mxCell id="hu1bkPcSUCPwq1X6XEAL-66" value="_id: UUID" style="text;strokeColor=none;fillColor=none;align=left;verticalAlign=top;spacingLeft=4;spacingRight=4;overflow=hidden;rotatable=0;points=[[0,0.5],[1,0.5]];portConstraint=eastwest;" parent="hu1bkPcSUCPwq1X6XEAL-65" vertex="1">
          <mxGeometry y="26" width="140" height="26" as="geometry" />
        </mxCell>
        <mxCell id="hu1bkPcSUCPwq1X6XEAL-67" value="name: String" style="text;strokeColor=none;fillColor=none;align=left;verticalAlign=top;spacingLeft=4;spacingRight=4;overflow=hidden;rotatable=0;points=[[0,0.5],[1,0.5]];portConstraint=eastwest;" parent="hu1bkPcSUCPwq1X6XEAL-65" vertex="1">
          <mxGeometry y="52" width="140" height="26" as="geometry" />
        </mxCell>
        <mxCell id="KPz0f72rKH66uZT1xgkU-5" style="edgeStyle=orthogonalEdgeStyle;rounded=0;orthogonalLoop=1;jettySize=auto;html=1;entryX=1.015;entryY=0.838;entryDx=0;entryDy=0;entryPerimeter=0;" edge="1" parent="1" source="hu1bkPcSUCPwq1X6XEAL-77" target="g0eFvDpEAOizdeeZ9maA-30">
          <mxGeometry relative="1" as="geometry" />
        </mxCell>
        <mxCell id="hu1bkPcSUCPwq1X6XEAL-77" value="manufacturer" style="swimlane;fontStyle=0;childLayout=stackLayout;horizontal=1;startSize=26;fillColor=none;horizontalStack=0;resizeParent=1;resizeParentMax=0;resizeLast=0;collapsible=1;marginBottom=0;" parent="1" vertex="1">
          <mxGeometry x="340" y="-14" width="140" height="104" as="geometry" />
        </mxCell>
        <mxCell id="hu1bkPcSUCPwq1X6XEAL-78" value="_id: UUID" style="text;strokeColor=none;fillColor=none;align=left;verticalAlign=top;spacingLeft=4;spacingRight=4;overflow=hidden;rotatable=0;points=[[0,0.5],[1,0.5]];portConstraint=eastwest;" parent="hu1bkPcSUCPwq1X6XEAL-77" vertex="1">
          <mxGeometry y="26" width="140" height="26" as="geometry" />
        </mxCell>
        <mxCell id="hu1bkPcSUCPwq1X6XEAL-79" value="name: String" style="text;strokeColor=none;fillColor=none;align=left;verticalAlign=top;spacingLeft=4;spacingRight=4;overflow=hidden;rotatable=0;points=[[0,0.5],[1,0.5]];portConstraint=eastwest;" parent="hu1bkPcSUCPwq1X6XEAL-77" vertex="1">
          <mxGeometry y="52" width="140" height="26" as="geometry" />
        </mxCell>
        <mxCell id="hu1bkPcSUCPwq1X6XEAL-80" value="listImage: List&lt;String&gt;" style="text;strokeColor=none;fillColor=none;align=left;verticalAlign=top;spacingLeft=4;spacingRight=4;overflow=hidden;rotatable=0;points=[[0,0.5],[1,0.5]];portConstraint=eastwest;" parent="hu1bkPcSUCPwq1X6XEAL-77" vertex="1">
          <mxGeometry y="78" width="140" height="26" as="geometry" />
        </mxCell>
        <mxCell id="g0eFvDpEAOizdeeZ9maA-21" style="edgeStyle=orthogonalEdgeStyle;rounded=0;orthogonalLoop=1;jettySize=auto;html=1;entryX=0;entryY=0.5;entryDx=0;entryDy=0;" parent="1" source="hu1bkPcSUCPwq1X6XEAL-38" target="g0eFvDpEAOizdeeZ9maA-18" edge="1">
          <mxGeometry relative="1" as="geometry" />
        </mxCell>
        <mxCell id="hu1bkPcSUCPwq1X6XEAL-38" value="criteria" style="swimlane;fontStyle=0;childLayout=stackLayout;horizontal=1;startSize=26;fillColor=none;horizontalStack=0;resizeParent=1;resizeParentMax=0;resizeLast=0;collapsible=1;marginBottom=0;" parent="1" vertex="1">
          <mxGeometry x="-190" y="-398" width="110" height="78" as="geometry" />
        </mxCell>
        <mxCell id="hu1bkPcSUCPwq1X6XEAL-39" value="_id: UUID" style="text;strokeColor=none;fillColor=none;align=left;verticalAlign=top;spacingLeft=4;spacingRight=4;overflow=hidden;rotatable=0;points=[[0,0.5],[1,0.5]];portConstraint=eastwest;" parent="hu1bkPcSUCPwq1X6XEAL-38" vertex="1">
          <mxGeometry y="26" width="110" height="26" as="geometry" />
        </mxCell>
        <mxCell id="hu1bkPcSUCPwq1X6XEAL-40" value="name: String" style="text;strokeColor=none;fillColor=none;align=left;verticalAlign=top;spacingLeft=4;spacingRight=4;overflow=hidden;rotatable=0;points=[[0,0.5],[1,0.5]];portConstraint=eastwest;" parent="hu1bkPcSUCPwq1X6XEAL-38" vertex="1">
          <mxGeometry y="52" width="110" height="26" as="geometry" />
        </mxCell>
        <mxCell id="g0eFvDpEAOizdeeZ9maA-16" style="edgeStyle=orthogonalEdgeStyle;rounded=0;orthogonalLoop=1;jettySize=auto;html=1;entryX=-0.013;entryY=0.769;entryDx=0;entryDy=0;entryPerimeter=0;" parent="1" source="hu1bkPcSUCPwq1X6XEAL-72" target="hu1bkPcSUCPwq1X6XEAL-37" edge="1">
          <mxGeometry relative="1" as="geometry">
            <mxPoint x="80" y="-117.00999999999999" as="targetPoint" />
          </mxGeometry>
        </mxCell>
        <mxCell id="hu1bkPcSUCPwq1X6XEAL-72" value="Seat" style="swimlane;fontStyle=0;childLayout=stackLayout;horizontal=1;startSize=26;fillColor=none;horizontalStack=0;resizeParent=1;resizeParentMax=0;resizeLast=0;collapsible=1;marginBottom=0;" parent="1" vertex="1">
          <mxGeometry x="-130" y="-250" width="140" height="104" as="geometry" />
        </mxCell>
        <mxCell id="g0eFvDpEAOizdeeZ9maA-29" value="_id: UUID" style="text;strokeColor=none;fillColor=none;align=left;verticalAlign=top;spacingLeft=4;spacingRight=4;overflow=hidden;rotatable=0;points=[[0,0.5],[1,0.5]];portConstraint=eastwest;" parent="hu1bkPcSUCPwq1X6XEAL-72" vertex="1">
          <mxGeometry y="26" width="140" height="26" as="geometry" />
        </mxCell>
        <mxCell id="hu1bkPcSUCPwq1X6XEAL-74" value="code: String" style="text;strokeColor=none;fillColor=none;align=left;verticalAlign=top;spacingLeft=4;spacingRight=4;overflow=hidden;rotatable=0;points=[[0,0.5],[1,0.5]];portConstraint=eastwest;" parent="hu1bkPcSUCPwq1X6XEAL-72" vertex="1">
          <mxGeometry y="52" width="140" height="26" as="geometry" />
        </mxCell>
        <mxCell id="hu1bkPcSUCPwq1X6XEAL-75" value="isBooked: Boolean" style="text;strokeColor=none;fillColor=none;align=left;verticalAlign=top;spacingLeft=4;spacingRight=4;overflow=hidden;rotatable=0;points=[[0,0.5],[1,0.5]];portConstraint=eastwest;" parent="hu1bkPcSUCPwq1X6XEAL-72" vertex="1">
          <mxGeometry y="78" width="140" height="26" as="geometry" />
        </mxCell>
        <mxCell id="KPz0f72rKH66uZT1xgkU-7" style="edgeStyle=orthogonalEdgeStyle;rounded=0;orthogonalLoop=1;jettySize=auto;html=1;entryX=1.017;entryY=0.131;entryDx=0;entryDy=0;entryPerimeter=0;" edge="1" parent="1" source="hu1bkPcSUCPwq1X6XEAL-16" target="g0eFvDpEAOizdeeZ9maA-25">
          <mxGeometry relative="1" as="geometry" />
        </mxCell>
        <mxCell id="hu1bkPcSUCPwq1X6XEAL-16" value="Location" style="swimlane;fontStyle=0;childLayout=stackLayout;horizontal=1;startSize=26;fillColor=none;horizontalStack=0;resizeParent=1;resizeParentMax=0;resizeLast=0;collapsible=1;marginBottom=0;" parent="1" vertex="1">
          <mxGeometry x="390" y="-460" width="140" height="156" as="geometry" />
        </mxCell>
        <mxCell id="hu1bkPcSUCPwq1X6XEAL-17" value="_id: UUID" style="text;strokeColor=none;fillColor=none;align=left;verticalAlign=top;spacingLeft=4;spacingRight=4;overflow=hidden;rotatable=0;points=[[0,0.5],[1,0.5]];portConstraint=eastwest;" parent="hu1bkPcSUCPwq1X6XEAL-16" vertex="1">
          <mxGeometry y="26" width="140" height="26" as="geometry" />
        </mxCell>
        <mxCell id="hu1bkPcSUCPwq1X6XEAL-18" value="name: String" style="text;strokeColor=none;fillColor=none;align=left;verticalAlign=top;spacingLeft=4;spacingRight=4;overflow=hidden;rotatable=0;points=[[0,0.5],[1,0.5]];portConstraint=eastwest;" parent="hu1bkPcSUCPwq1X6XEAL-16" vertex="1">
          <mxGeometry y="52" width="140" height="26" as="geometry" />
        </mxCell>
        <mxCell id="hu1bkPcSUCPwq1X6XEAL-20" value="IdDistrict: District" style="text;strokeColor=none;fillColor=none;align=left;verticalAlign=top;spacingLeft=4;spacingRight=4;overflow=hidden;rotatable=0;points=[[0,0.5],[1,0.5]];portConstraint=eastwest;" parent="hu1bkPcSUCPwq1X6XEAL-16" vertex="1">
          <mxGeometry y="78" width="140" height="26" as="geometry" />
        </mxCell>
        <mxCell id="KPz0f72rKH66uZT1xgkU-16" value="IdProvince: Province" style="text;strokeColor=none;fillColor=none;align=left;verticalAlign=top;spacingLeft=4;spacingRight=4;overflow=hidden;rotatable=0;points=[[0,0.5],[1,0.5]];portConstraint=eastwest;" vertex="1" parent="hu1bkPcSUCPwq1X6XEAL-16">
          <mxGeometry y="104" width="140" height="26" as="geometry" />
        </mxCell>
        <mxCell id="KPz0f72rKH66uZT1xgkU-17" value="IdWard: Ward" style="text;strokeColor=none;fillColor=none;align=left;verticalAlign=top;spacingLeft=4;spacingRight=4;overflow=hidden;rotatable=0;points=[[0,0.5],[1,0.5]];portConstraint=eastwest;" vertex="1" parent="hu1bkPcSUCPwq1X6XEAL-16">
          <mxGeometry y="130" width="140" height="26" as="geometry" />
        </mxCell>
        <mxCell id="hu1bkPcSUCPwq1X6XEAL-3" value="UserType" style="swimlane;fontStyle=0;childLayout=stackLayout;horizontal=1;startSize=26;fillColor=none;horizontalStack=0;resizeParent=1;resizeParentMax=0;resizeLast=0;collapsible=1;marginBottom=0;" parent="1" vertex="1">
          <mxGeometry x="-210" y="-92" width="80" height="78" as="geometry" />
        </mxCell>
        <mxCell id="hu1bkPcSUCPwq1X6XEAL-4" value="ADMIN" style="text;strokeColor=none;fillColor=none;align=left;verticalAlign=top;spacingLeft=4;spacingRight=4;overflow=hidden;rotatable=0;points=[[0,0.5],[1,0.5]];portConstraint=eastwest;" parent="hu1bkPcSUCPwq1X6XEAL-3" vertex="1">
          <mxGeometry y="26" width="80" height="26" as="geometry" />
        </mxCell>
        <mxCell id="hu1bkPcSUCPwq1X6XEAL-5" value="CLIENT" style="text;strokeColor=none;fillColor=none;align=left;verticalAlign=top;spacingLeft=4;spacingRight=4;overflow=hidden;rotatable=0;points=[[0,0.5],[1,0.5]];portConstraint=eastwest;" parent="hu1bkPcSUCPwq1X6XEAL-3" vertex="1">
          <mxGeometry y="52" width="80" height="26" as="geometry" />
        </mxCell>
        <mxCell id="hu1bkPcSUCPwq1X6XEAL-103" style="edgeStyle=orthogonalEdgeStyle;rounded=0;orthogonalLoop=1;jettySize=auto;html=1;entryX=0;entryY=0.25;entryDx=0;entryDy=0;" parent="1" source="hu1bkPcSUCPwq1X6XEAL-8" target="hu1bkPcSUCPwq1X6XEAL-46" edge="1">
          <mxGeometry relative="1" as="geometry">
            <Array as="points">
              <mxPoint x="80" y="16" />
              <mxPoint x="80" y="16" />
            </Array>
          </mxGeometry>
        </mxCell>
        <mxCell id="hu1bkPcSUCPwq1X6XEAL-8" value="User" style="swimlane;fontStyle=0;childLayout=stackLayout;horizontal=1;startSize=26;fillColor=none;horizontalStack=0;resizeParent=1;resizeParentMax=0;resizeLast=0;collapsible=1;marginBottom=0;" parent="1" vertex="1">
          <mxGeometry x="-80" y="-92" width="140" height="260" as="geometry" />
        </mxCell>
        <mxCell id="hu1bkPcSUCPwq1X6XEAL-9" value="_id: UUID" style="text;strokeColor=none;fillColor=none;align=left;verticalAlign=top;spacingLeft=4;spacingRight=4;overflow=hidden;rotatable=0;points=[[0,0.5],[1,0.5]];portConstraint=eastwest;" parent="hu1bkPcSUCPwq1X6XEAL-8" vertex="1">
          <mxGeometry y="26" width="140" height="26" as="geometry" />
        </mxCell>
        <mxCell id="hu1bkPcSUCPwq1X6XEAL-10" value="phone: String" style="text;strokeColor=none;fillColor=none;align=left;verticalAlign=top;spacingLeft=4;spacingRight=4;overflow=hidden;rotatable=0;points=[[0,0.5],[1,0.5]];portConstraint=eastwest;" parent="hu1bkPcSUCPwq1X6XEAL-8" vertex="1">
          <mxGeometry y="52" width="140" height="26" as="geometry" />
        </mxCell>
        <mxCell id="hu1bkPcSUCPwq1X6XEAL-12" value="userType: UserType" style="text;strokeColor=none;fillColor=none;align=left;verticalAlign=top;spacingLeft=4;spacingRight=4;overflow=hidden;rotatable=0;points=[[0,0.5],[1,0.5]];portConstraint=eastwest;" parent="hu1bkPcSUCPwq1X6XEAL-8" vertex="1">
          <mxGeometry y="78" width="140" height="26" as="geometry" />
        </mxCell>
        <object label="email: String" id="hu1bkPcSUCPwq1X6XEAL-13">
          <mxCell style="text;strokeColor=none;fillColor=none;align=left;verticalAlign=top;spacingLeft=4;spacingRight=4;overflow=hidden;rotatable=0;points=[[0,0.5],[1,0.5]];portConstraint=eastwest;" parent="hu1bkPcSUCPwq1X6XEAL-8" vertex="1">
            <mxGeometry y="104" width="140" height="26" as="geometry" />
          </mxCell>
        </object>
        <mxCell id="hu1bkPcSUCPwq1X6XEAL-14" value="fullname: String" style="text;strokeColor=none;fillColor=none;align=left;verticalAlign=top;spacingLeft=4;spacingRight=4;overflow=hidden;rotatable=0;points=[[0,0.5],[1,0.5]];portConstraint=eastwest;" parent="hu1bkPcSUCPwq1X6XEAL-8" vertex="1">
          <mxGeometry y="130" width="140" height="26" as="geometry" />
        </mxCell>
        <mxCell id="hu1bkPcSUCPwq1X6XEAL-58" value="CreatedAt: LocalTime" style="text;strokeColor=none;fillColor=none;align=left;verticalAlign=top;spacingLeft=4;spacingRight=4;overflow=hidden;rotatable=0;points=[[0,0.5],[1,0.5]];portConstraint=eastwest;" parent="hu1bkPcSUCPwq1X6XEAL-8" vertex="1">
          <mxGeometry y="156" width="140" height="26" as="geometry" />
        </mxCell>
        <mxCell id="hu1bkPcSUCPwq1X6XEAL-70" value="birth: LocalDate" style="text;strokeColor=none;fillColor=none;align=left;verticalAlign=top;spacingLeft=4;spacingRight=4;overflow=hidden;rotatable=0;points=[[0,0.5],[1,0.5]];portConstraint=eastwest;" parent="hu1bkPcSUCPwq1X6XEAL-8" vertex="1">
          <mxGeometry y="182" width="140" height="26" as="geometry" />
        </mxCell>
        <mxCell id="hu1bkPcSUCPwq1X6XEAL-71" value="gender: Boolean" style="text;strokeColor=none;fillColor=none;align=left;verticalAlign=top;spacingLeft=4;spacingRight=4;overflow=hidden;rotatable=0;points=[[0,0.5],[1,0.5]];portConstraint=eastwest;" parent="hu1bkPcSUCPwq1X6XEAL-8" vertex="1">
          <mxGeometry y="208" width="140" height="26" as="geometry" />
        </mxCell>
        <object label="Active: Boolean" placeholders="1" id="hu1bkPcSUCPwq1X6XEAL-59">
          <mxCell style="text;strokeColor=none;fillColor=none;align=left;verticalAlign=top;spacingLeft=4;spacingRight=4;overflow=hidden;rotatable=0;points=[[0,0.5],[1,0.5]];portConstraint=eastwest;" parent="hu1bkPcSUCPwq1X6XEAL-8" vertex="1">
            <mxGeometry y="234" width="140" height="26" as="geometry" />
          </mxCell>
        </object>
        <mxCell id="g0eFvDpEAOizdeeZ9maA-38" style="edgeStyle=orthogonalEdgeStyle;rounded=0;orthogonalLoop=1;jettySize=auto;html=1;entryX=0.324;entryY=0.992;entryDx=0;entryDy=0;entryPerimeter=0;" parent="1" source="hu1bkPcSUCPwq1X6XEAL-46" target="g0eFvDpEAOizdeeZ9maA-40" edge="1">
          <mxGeometry relative="1" as="geometry">
            <mxPoint x="203" y="-30" as="targetPoint" />
          </mxGeometry>
        </mxCell>
        <mxCell id="hu1bkPcSUCPwq1X6XEAL-46" value="Ticket" style="swimlane;fontStyle=0;childLayout=stackLayout;horizontal=1;startSize=26;fillColor=none;horizontalStack=0;resizeParent=1;resizeParentMax=0;resizeLast=0;collapsible=1;marginBottom=0;" parent="1" vertex="1">
          <mxGeometry x="140" y="-10" width="140" height="104" as="geometry" />
        </mxCell>
        <mxCell id="hu1bkPcSUCPwq1X6XEAL-47" value="_id: UUID" style="text;strokeColor=none;fillColor=none;align=left;verticalAlign=top;spacingLeft=4;spacingRight=4;overflow=hidden;rotatable=0;points=[[0,0.5],[1,0.5]];portConstraint=eastwest;" parent="hu1bkPcSUCPwq1X6XEAL-46" vertex="1">
          <mxGeometry y="26" width="140" height="26" as="geometry" />
        </mxCell>
        <mxCell id="hu1bkPcSUCPwq1X6XEAL-48" value="UserId: User" style="text;strokeColor=none;fillColor=none;align=left;verticalAlign=top;spacingLeft=4;spacingRight=4;overflow=hidden;rotatable=0;points=[[0,0.5],[1,0.5]];portConstraint=eastwest;" parent="hu1bkPcSUCPwq1X6XEAL-46" vertex="1">
          <mxGeometry y="52" width="140" height="26" as="geometry" />
        </mxCell>
        <mxCell id="hu1bkPcSUCPwq1X6XEAL-98" value="TripId: Trip" style="text;strokeColor=none;fillColor=none;align=left;verticalAlign=top;spacingLeft=4;spacingRight=4;overflow=hidden;rotatable=0;points=[[0,0.5],[1,0.5]];portConstraint=eastwest;" parent="hu1bkPcSUCPwq1X6XEAL-46" vertex="1">
          <mxGeometry y="78" width="140" height="26" as="geometry" />
        </mxCell>
        <mxCell id="g0eFvDpEAOizdeeZ9maA-22" style="edgeStyle=orthogonalEdgeStyle;rounded=0;orthogonalLoop=1;jettySize=auto;html=1;entryX=0.104;entryY=-0.004;entryDx=0;entryDy=0;entryPerimeter=0;" parent="1" source="g0eFvDpEAOizdeeZ9maA-17" target="hu1bkPcSUCPwq1X6XEAL-25" edge="1">
          <mxGeometry relative="1" as="geometry" />
        </mxCell>
        <mxCell id="g0eFvDpEAOizdeeZ9maA-17" value="CriteriaTrip" style="swimlane;fontStyle=0;childLayout=stackLayout;horizontal=1;startSize=26;fillColor=none;horizontalStack=0;resizeParent=1;resizeParentMax=0;resizeLast=0;collapsible=1;marginBottom=0;" parent="1" vertex="1">
          <mxGeometry x="-40" y="-398" width="140" height="78" as="geometry" />
        </mxCell>
        <mxCell id="g0eFvDpEAOizdeeZ9maA-18" value="_idCriteria: Criteria" style="text;strokeColor=none;fillColor=none;align=left;verticalAlign=top;spacingLeft=4;spacingRight=4;overflow=hidden;rotatable=0;points=[[0,0.5],[1,0.5]];portConstraint=eastwest;" parent="g0eFvDpEAOizdeeZ9maA-17" vertex="1">
          <mxGeometry y="26" width="140" height="26" as="geometry" />
        </mxCell>
        <mxCell id="g0eFvDpEAOizdeeZ9maA-19" value="_idTrip: Trip" style="text;strokeColor=none;fillColor=none;align=left;verticalAlign=top;spacingLeft=4;spacingRight=4;overflow=hidden;rotatable=0;points=[[0,0.5],[1,0.5]];portConstraint=eastwest;" parent="g0eFvDpEAOizdeeZ9maA-17" vertex="1">
          <mxGeometry y="52" width="140" height="26" as="geometry" />
        </mxCell>
        <mxCell id="KPz0f72rKH66uZT1xgkU-4" style="edgeStyle=orthogonalEdgeStyle;rounded=0;orthogonalLoop=1;jettySize=auto;html=1;entryX=0.542;entryY=-0.01;entryDx=0;entryDy=0;entryPerimeter=0;" edge="1" parent="1" source="g0eFvDpEAOizdeeZ9maA-23" target="hu1bkPcSUCPwq1X6XEAL-25">
          <mxGeometry relative="1" as="geometry" />
        </mxCell>
        <mxCell id="g0eFvDpEAOizdeeZ9maA-23" value="InforPickUpPoint" style="swimlane;fontStyle=0;childLayout=stackLayout;horizontal=1;startSize=26;fillColor=none;horizontalStack=0;resizeParent=1;resizeParentMax=0;resizeLast=0;collapsible=1;marginBottom=0;" parent="1" vertex="1">
          <mxGeometry x="190" y="-424" width="140" height="78" as="geometry" />
        </mxCell>
        <mxCell id="g0eFvDpEAOizdeeZ9maA-25" value="name: String" style="text;strokeColor=none;fillColor=none;align=left;verticalAlign=top;spacingLeft=4;spacingRight=4;overflow=hidden;rotatable=0;points=[[0,0.5],[1,0.5]];portConstraint=eastwest;" parent="g0eFvDpEAOizdeeZ9maA-23" vertex="1">
          <mxGeometry y="26" width="140" height="26" as="geometry" />
        </mxCell>
        <mxCell id="g0eFvDpEAOizdeeZ9maA-28" value="timeBegin: LocalTime" style="text;strokeColor=none;fillColor=none;align=left;verticalAlign=top;spacingLeft=4;spacingRight=4;overflow=hidden;rotatable=0;points=[[0,0.5],[1,0.5]];portConstraint=eastwest;" parent="g0eFvDpEAOizdeeZ9maA-23" vertex="1">
          <mxGeometry y="52" width="140" height="26" as="geometry" />
        </mxCell>
        <mxCell id="KPz0f72rKH66uZT1xgkU-18" style="edgeStyle=orthogonalEdgeStyle;rounded=0;orthogonalLoop=1;jettySize=auto;html=1;" edge="1" parent="1" source="KPz0f72rKH66uZT1xgkU-8" target="KPz0f72rKH66uZT1xgkU-17">
          <mxGeometry relative="1" as="geometry" />
        </mxCell>
        <mxCell id="KPz0f72rKH66uZT1xgkU-8" value="Ward" style="swimlane;fontStyle=0;childLayout=stackLayout;horizontal=1;startSize=26;fillColor=none;horizontalStack=0;resizeParent=1;resizeParentMax=0;resizeLast=0;collapsible=1;marginBottom=0;" vertex="1" parent="1">
          <mxGeometry x="410" y="-237" width="140" height="78" as="geometry" />
        </mxCell>
        <mxCell id="KPz0f72rKH66uZT1xgkU-9" value="_id: UUID" style="text;strokeColor=none;fillColor=none;align=left;verticalAlign=top;spacingLeft=4;spacingRight=4;overflow=hidden;rotatable=0;points=[[0,0.5],[1,0.5]];portConstraint=eastwest;" vertex="1" parent="KPz0f72rKH66uZT1xgkU-8">
          <mxGeometry y="26" width="140" height="26" as="geometry" />
        </mxCell>
        <mxCell id="KPz0f72rKH66uZT1xgkU-10" value="name: String" style="text;strokeColor=none;fillColor=none;align=left;verticalAlign=top;spacingLeft=4;spacingRight=4;overflow=hidden;rotatable=0;points=[[0,0.5],[1,0.5]];portConstraint=eastwest;" vertex="1" parent="KPz0f72rKH66uZT1xgkU-8">
          <mxGeometry y="52" width="140" height="26" as="geometry" />
        </mxCell>
        <mxCell id="KPz0f72rKH66uZT1xgkU-15" style="edgeStyle=orthogonalEdgeStyle;rounded=0;orthogonalLoop=1;jettySize=auto;html=1;entryX=0.5;entryY=0;entryDx=0;entryDy=0;" edge="1" parent="1" source="KPz0f72rKH66uZT1xgkU-11" target="hu1bkPcSUCPwq1X6XEAL-16">
          <mxGeometry relative="1" as="geometry" />
        </mxCell>
        <mxCell id="KPz0f72rKH66uZT1xgkU-11" value="District" style="swimlane;fontStyle=0;childLayout=stackLayout;horizontal=1;startSize=26;fillColor=none;horizontalStack=0;resizeParent=1;resizeParentMax=0;resizeLast=0;collapsible=1;marginBottom=0;" vertex="1" parent="1">
          <mxGeometry x="580" y="-490" width="140" height="78" as="geometry" />
        </mxCell>
        <mxCell id="KPz0f72rKH66uZT1xgkU-12" value="_id: UUID" style="text;strokeColor=none;fillColor=none;align=left;verticalAlign=top;spacingLeft=4;spacingRight=4;overflow=hidden;rotatable=0;points=[[0,0.5],[1,0.5]];portConstraint=eastwest;" vertex="1" parent="KPz0f72rKH66uZT1xgkU-11">
          <mxGeometry y="26" width="140" height="26" as="geometry" />
        </mxCell>
        <mxCell id="KPz0f72rKH66uZT1xgkU-13" value="name: String" style="text;strokeColor=none;fillColor=none;align=left;verticalAlign=top;spacingLeft=4;spacingRight=4;overflow=hidden;rotatable=0;points=[[0,0.5],[1,0.5]];portConstraint=eastwest;" vertex="1" parent="KPz0f72rKH66uZT1xgkU-11">
          <mxGeometry y="52" width="140" height="26" as="geometry" />
        </mxCell>
      </root>
    </mxGraphModel>
  </diagram>
</mxfile>
